<?xml version="1.0" encoding="UTF-8" standalone="no"?>
<!-- Created with Inkscape (http://www.inkscape.org/) -->

<svg
   width="172.05153mm"
   height="92.471481mm"
   viewBox="0 0 172.05153 92.471481"
   version="1.1"
   id="svg191"
   xml:space="preserve"
   xmlns:inkscape="http://www.inkscape.org/namespaces/inkscape"
   xmlns:sodipodi="http://sodipodi.sourceforge.net/DTD/sodipodi-0.dtd"
   xmlns="http://www.w3.org/2000/svg"
   xmlns:svg="http://www.w3.org/2000/svg"><sodipodi:namedview
     id="namedview193"
     pagecolor="#ffffff"
     bordercolor="#000000"
     borderopacity="0.25"
     inkscape:showpageshadow="2"
     inkscape:pageopacity="0.0"
     inkscape:pagecheckerboard="0"
     inkscape:deskcolor="#d1d1d1"
     inkscape:document-units="mm"
     showgrid="false" /><defs
     id="defs188" /><g
     inkscape:label="Layer 1"
     inkscape:groupmode="layer"
     id="layer1"
     transform="translate(-17.892718,-83.177381)"><path
       style="fill:none;stroke:#ffffff;stroke-width:5;stroke-dasharray:none;stroke-opacity:1"
       d="m 68.743864,172.95227 c -2.508541,-0.24537 -5.292635,-0.68913 -6.482291,-1.03321 -0.727604,-0.21044 -2.632604,-0.67901 -4.233333,-1.04126 -1.60073,-0.36225 -5.648855,-1.54449 -8.995834,-2.6272 -3.731262,-1.20701 -6.95543,-2.0849 -8.334374,-2.26929 -9.234171,-1.23484 -10.623425,-2.26204 -12.818852,-9.47813 -0.511947,-1.6827 -0.789335,-2.12978 -2.091681,-3.37124 -7.101715,-6.76968 -7.268153,-17.6295 -0.376102,-24.54012 1.216117,-1.21939 1.991274,-2.19795 1.886283,-2.38125 -0.09803,-0.17114 -0.08041,-0.2225 0.03916,-0.11413 0.188428,0.17077 1.454937,-1.37043 1.454937,-1.7705 0,-0.0805 -0.241072,-0.14633 -0.535716,-0.14633 -0.512798,0 -1.051784,-0.87686 -1.051784,-1.71112 0,-1.94041 4.784815,-5.22559 5.215004,-3.58054 0.212941,0.81428 0.444421,0.67271 2.24189,-1.37118 2.806741,-3.19151 6.075784,-6.28563 7.48074,-7.08044 2.471015,-1.3979 3.966392,-1.53577 9.139449,-0.84263 2.780344,0.37254 9.113324,1.06832 9.155178,1.00584 0.305255,-0.45564 0.310835,-1.50118 0.008,-1.50118 -0.29659,0 -0.39212,-0.73667 -0.471808,-3.63831 -0.09992,-3.63832 -0.09992,-3.63832 -1.088358,-4.93284 -0.543642,-0.711987 -0.997169,-1.426227 -1.007837,-1.587207 -0.156406,-2.3602 0.121988,-11.27976 0.368101,-11.79375 1.060582,-2.21493 12.746225,-1.8122 13.420093,0.46251 0.653385,2.20556 0.218053,11.82808 -0.573448,12.675447 -1.175943,1.25896 -1.289105,1.72923 -1.289105,5.35718 0,2.12826 -0.101696,3.45697 -0.264584,3.45697 -0.145521,0 -0.264583,0.35719 -0.264583,0.79375 0,0.66298 0.105344,0.79375 0.639411,0.79375 0.351673,0 0.679095,0.11215 0.727604,0.24921 0.08807,0.24886 3.797411,-0.1766 6.628878,-0.76034 10.327513,-2.1291 12.693875,-2.4512 21.637445,-2.94519 10.538963,-0.58211 19.010403,0.16341 30.294783,2.66607 6.29427,1.39595 8.68609,1.3906 8.78674,-0.0197 0.0305,-0.42768 -0.0407,-0.77759 -0.15818,-0.77759 -0.11753,0 -0.29566,-1.63711 -0.39584,-3.63802 -0.18216,-3.63802 -0.18216,-3.63802 -1.24204,-5.21735 -1.14942,-1.712747 -1.39283,-12.182787 -0.31208,-13.423487 0.97595,-1.12038 10.52142,-1.44122 12.40391,-0.41692 1.72463,0.93841 1.79952,11.56324 0.0992,14.066387 -1.0577,1.55706 -1.0577,1.55706 -1.0577,5.09323 0,2.98334 -0.0627,3.53616 -0.40108,3.53616 -0.28269,0 -0.38323,0.23429 -0.3406,0.79375 0.0333,0.43657 0.0861,0.79375 0.11735,0.79375 0.0313,0 0.92869,-0.11638 1.99424,-0.25864 1.06556,-0.14225 3.3066,-0.37789 4.98009,-0.52364 1.67349,-0.14576 4.14865,-0.39366 5.50037,-0.5509 2.68906,-0.31282 4.47743,0.002 6.40588,1.12631 2.26024,1.3182 14.2875,14.60844 14.2875,15.78783 0,0.31327 1.50375,1.08244 1.72508,0.88238 0.11651,-0.1053 0.13208,-0.0522 0.0346,0.11808 -0.0975,0.17025 0.0935,0.52744 0.42436,0.79375 7.55265,6.07893 7.08714,19.84869 -0.87634,25.92171 -0.73107,0.55752 -1.20531,1.05497 -1.05388,1.10544 0.15143,0.0505 0.27351,0.29022 0.27128,0.53275 -0.003,0.3814 -0.0387,0.38736 -0.26053,0.0441 -0.2017,-0.3121 -0.26441,-0.24145 -0.29361,0.33073 -0.047,0.92114 -0.0523,0.94071 -0.55433,2.05052 -0.2304,0.50932 -0.74043,1.64042 -1.13339,2.51354 -1.46332,3.25139 -3.88631,4.45501 -10.6598,5.29527 -2.34165,0.29048 -4.11309,0.74735 -8.07759,2.08327 -2.79299,0.94116 -6.86409,2.14138 -9.04691,2.66715 -2.18281,0.52577 -4.56406,1.12543 -5.29166,1.33257 -5.13424,1.46162 -12.96268,1.39427 -17.98031,-0.15469 -0.86688,-0.2676 -1.6252,-0.43751 -1.68515,-0.37756 -0.06,0.0599 -0.28174,-0.0637 -0.49287,-0.27488 -0.21114,-0.21113 -0.70298,-0.46095 -1.09299,-0.55516 -0.39,-0.0942 -2.07832,-0.86003 -3.75181,-1.70183 -11.94844,-6.01031 -21.033153,-5.98541 -33.2052,0.091 -6.75323,3.37129 -12.190983,4.5676 -18.123958,3.98728 z"
       id="path428" /><circle
       style="fill:none;stroke:#ffffff;stroke-width:4.99999;stroke-linejoin:bevel;stroke-dasharray:none;stroke-opacity:1"
       id="path1084"
       cx="38.384724"
       cy="141.83084"
       r="14.672155" /><circle
       style="fill:none;stroke:#ffffff;stroke-width:4.99999;stroke-linejoin:bevel;stroke-dasharray:none;stroke-opacity:1"
       id="path1084-1"
       cx="169.2485"
       cy="140.79341"
       r="14.672155" /></g></svg>
