<?xml version="1.0" encoding="UTF-8" standalone="no"?>
<!-- Created with Inkscape (http://www.inkscape.org/) -->

<svg
   width="177.22833mm"
   height="97.434845mm"
   viewBox="0 0 177.22833 97.434845"
   version="1.1"
   id="svg5"
   xml:space="preserve"
   xmlns:inkscape="http://www.inkscape.org/namespaces/inkscape"
   xmlns:sodipodi="http://sodipodi.sourceforge.net/DTD/sodipodi-0.dtd"
   xmlns="http://www.w3.org/2000/svg"
   xmlns:svg="http://www.w3.org/2000/svg"><sodipodi:namedview
     id="namedview7"
     pagecolor="#ffffff"
     bordercolor="#000000"
     borderopacity="0.25"
     inkscape:showpageshadow="2"
     inkscape:pageopacity="0.0"
     inkscape:pagecheckerboard="0"
     inkscape:deskcolor="#d1d1d1"
     inkscape:document-units="mm"
     showgrid="false" /><defs
     id="defs2" /><g
     inkscape:label="Layer 1"
     inkscape:groupmode="layer"
     id="layer1"
     transform="translate(-16.385666,-81.985014)"><path
       style="fill:none;stroke:#ffffff;stroke-width:5;stroke-dasharray:none;stroke-opacity:1"
       d="m 33.431272,176.62432 c -0.07604,-0.0772 -0.464387,-0.19956 -0.862995,-0.27184 -5.947716,-1.07852 -11.407317,-9.62446 -7.88101,-12.33617 0.09462,-0.0728 1.268034,-1.63717 2.607592,-3.47647 2.491561,-3.42107 3.388783,-4.155 5.15554,-4.21722 0.324477,-0.0114 -0.538053,-0.40738 -1.916734,-0.87989 -2.888709,-0.99004 -3.374099,-1.48677 -5.305773,-5.42973 -2.395042,-4.88879 -3.685419,-8.557 -5.312063,-15.10085 -0.364013,-1.4644 -1.029577,-8.13585 -1.030154,-10.32603 -6.35e-4,-2.39803 0.224373,-2.78385 2.391069,-4.10005 1.249481,-0.75902 1.737669,-1.25411 2.267361,-2.2994 1.595369,-3.14831 5.984896,-8.15472 8.092751,-9.23007 0.565372,-0.28843 1.132242,-0.79873 1.259712,-1.134 0.12747,-0.33528 0.433034,-0.81086 0.679031,-1.05685 0.379444,-0.37945 0.39855,-0.56488 0.125995,-1.22289 -0.345656,-0.83449 -0.529503,-0.92356 -2.442303,-1.18333 -1.534978,-0.20846 -2.160212,-0.79324 -4.606244,-4.30828 -0.98655,-1.417702 -2.007677,-2.809372 -2.269173,-3.092602 -3.252712,-3.52299 1.69872,-10.738538 8.446366,-12.308598 2.787187,-0.64853 3.781794,-0.0205 7.440219,4.69835 3.326059,4.290108 3.310888,4.259718 3.116017,6.240468 -0.164886,1.67595 1.872639,5.407402 3.232205,5.919362 0.244525,0.0921 0.895654,0.49225 1.446953,0.88928 0.841807,0.60624 1.127874,0.68291 1.785938,0.47867 0.430966,-0.13376 1.17053,-0.36273 1.643472,-0.50882 4.797227,-1.48183 15.580617,-2.822502 31.816145,-3.955622 16.771791,-1.17055 52.858221,-0.0864 64.955211,1.951442 0.3638,0.0613 1.91162,0.3113 3.43958,0.55558 3.23666,0.51745 6.7391,1.288 8.5547,1.88207 1.26373,0.4135 1.2869,0.41069 1.98438,-0.24017 0.38814,-0.36221 1.03332,-0.82495 1.43372,-1.02833 1.71749,-0.87234 3.61825,-4.313792 3.45965,-6.263902 -0.13842,-1.70207 0.93364,-4.01561 2.08412,-4.4976 0.11579,-0.0485 0.21052,-0.19989 0.21052,-0.33641 0,-0.23914 2.12735,-3.066368 3.39118,-4.506848 2.39185,-2.72617 7.51764,-1.4199 12.08348,3.07937 2.75932,2.719088 2.82641,6.529598 0.16497,9.368958 -0.8359,0.89178 -2.14826,2.725832 -2.14688,3.000312 5.3e-4,0.10914 -0.20736,0.40806 -0.46202,0.66426 -0.25467,0.2562 -0.70115,0.77003 -0.99219,1.14184 -0.58072,0.74188 -1.90769,1.30275 -3.08219,1.30275 -0.41485,0 -0.75427,0.13891 -0.75427,0.30868 0,0.16978 -0.0759,0.23279 -0.16867,0.14002 -0.14522,-0.14523 -2.21258,2.47583 -2.21258,2.80519 0,0.0657 0.36839,0.19323 0.81864,0.28328 4.22128,0.84426 9.54631,6.66429 13.03084,14.24218 2.83451,6.16426 2.71411,9.95856 -0.62382,19.65919 -0.75109,2.18282 -1.38499,4.22672 -1.40866,4.54202 -0.0237,0.31529 -0.0811,0.53521 -0.12759,0.48871 -0.0465,-0.0465 -0.80281,1.30397 -1.68068,3.00105 -2.23253,4.31591 -2.297,4.38117 -5.39039,5.45585 -1.83385,0.63711 -2.39285,0.91978 -1.84021,0.93056 1.70931,0.0333 2.68353,0.79917 4.88237,3.83806 1.15824,1.60073 2.2405,3.06528 2.40502,3.25456 2.06584,2.37659 1.88101,6.96918 -0.3362,8.35385 -0.2579,0.16106 -0.4689,0.44279 -0.4689,0.62607 0,0.18328 -0.12991,0.33323 -0.28867,0.33323 -0.15877,0 -0.75223,0.39679 -1.3188,0.88175 -2.38222,2.03909 -5.56502,3.20422 -7.69102,2.81546 -0.63391,-0.11592 -1.19203,-0.21049 -1.24028,-0.21016 -0.20036,0.001 -2.17786,-1.89274 -2.14826,-2.05768 0.0177,-0.0988 -0.0731,-0.25242 -0.20191,-0.34146 -1.78791,-1.23613 -4.89697,-6.54936 -4.76854,-8.14923 0.12869,-1.60327 0.081,-1.81499 -0.6363,-2.826 -0.42648,-0.60109 -1.07024,-1.53937 -1.43059,-2.08507 -0.78099,-1.1827 -1.28498,-1.23974 -4.30863,-0.48763 -2.04535,0.50876 -5.87681,1.06049 -11.35502,1.63511 -2.97657,0.31222 -2.97657,0.31222 -2.98498,1.1368 -0.019,1.86596 -0.0831,1.8829 -7.11797,1.8829 -6.87994,0 -7.4257,-0.11784 -7.4257,-1.60345 0,-0.59541 0,-0.59541 -7.20989,-0.71777 -7.65274,-0.12988 -7.60741,-0.12406 -14.9188,-1.91621 -3.22377,-0.7902 -5.16335,-0.82689 -7.78554,-0.14728 -1.08243,0.28054 -2.920564,0.7116 -4.084734,0.9579 -1.16416,0.24631 -2.59291,0.56231 -3.175,0.70222 -0.582081,0.13991 -4.272139,0.33392 -8.200128,0.43115 -7.141797,0.17678 -7.141797,0.17678 -7.570954,1.08679 -1.224346,2.5962 -14.523706,1.87796 -14.523706,-0.78435 0,-0.86975 -0.166711,-0.9137 -5.027083,-1.32536 -1.81901,-0.15406 -3.664479,-0.33768 -4.101041,-0.40804 -0.436563,-0.0704 -1.210469,-0.19676 -1.719792,-0.28088 -0.509323,-0.0841 -2.159011,-0.44391 -3.665971,-0.79952 -2.816752,-0.66469 -4.244623,-0.0538 -4.957789,2.12111 -0.08861,0.27021 -0.356449,0.71945 -0.595204,0.9983 -0.330409,0.38588 -0.412861,0.92005 -0.345178,2.23619 0.103203,2.00684 0.05588,2.09638 -3.549661,6.71675 -2.850976,3.65343 -5.667671,5.49937 -6.735907,4.41442 z"
       id="path9002" /><rect
       style="fill:#ff0000;fill-opacity:1;stroke:none;stroke-width:3.10755;stroke-linejoin:bevel;stroke-dasharray:none;stroke-opacity:1"
       id="rect9064-7"
       width="53.026657"
       height="8.0959797"
       x="123.13503"
       y="123.59325"
       ry="2.7831089" /><rect
       style="fill:#ff0000;fill-opacity:1;stroke:none;stroke-width:3.10755;stroke-linejoin:bevel;stroke-dasharray:none;stroke-opacity:1"
       id="rect9064-7-2"
       width="53.026657"
       height="8.0959797"
       x="38.103436"
       y="123.59325"
       ry="2.7831089" /></g></svg>
